<svg xmlns="http://www.w3.org/2000/svg" viewBox="0 0 948.44 178.05">
<defs>
    <linearGradient id="a" x1="67.49" y1="22.19" x2="67.49" y2="155.86" gradientTransform="rotate(-45 67.494 89.023)" gradientUnits="userSpaceOnUse">
    <stop offset="0" stop-color="#210070"/>
    <stop offset="1" stop-color="#00f3ff"/>
    </linearGradient>
    </defs>
<path d="M220.94 71.39a8.24 8.24 0 0 1-1 3.74L198 123.22c-1.87 3.87-4.36 6.23-8.22 6.23s-6.36-2.36-8.1-6.23l-22.05-48.09a10.4 10.4 0 0 1-.87-3.74 7.39 7.39 0 0 1 7.48-7.39c3.11 0 6.1 1.74 7.85 5.73l15.7 36.88 15.82-36.88c1.62-4 4.61-5.73 7.73-5.73a7.42 7.42 0 0 1 7.6 7.39Zm69.15 22.8c0 6.48-3.62 8.72-10.22 8.72l-37-.25c1.5 9.1 8.73 14 17.82 14 4.49 0 6.61-1 10.34-2.62 2.25-1 4-2 6.11-2a5.36 5.36 0 0 1 5.61 5.61c0 2-.88 4.23-4 6.85-4.61 3.24-10.84 5.36-18.69 5.36-16.57 0-34.14-10.22-34.14-32.9 0-22.42 18.56-33.26 32.77-33.26s31.4 11.18 31.4 30.49ZM274 91.45c-1.24-9.59-8.22-13.58-15.32-13.58s-14.7 4-15.83 13.58Zm43.62-19.19v6.36c.5-4.49 8.47-14.83 19.06-14.83 5.61 0 8.35 3.49 8.35 7.35 0 4.49-3.49 7.85-10.22 7.85-10 0-17.19 7.23-17.19 17.32v25.42a8.16 8.16 0 0 1-16.32 0V72.26a8.16 8.16 0 1 1 16.32 0ZM405.09 130a8.19 8.19 0 0 1-8.23-8.1v-2.36c-1 3.86-7.6 10.59-18.44 10.59-13.7 0-30.15-10.59-30.15-33.27 0-22.18 16.57-33.14 30.15-33.14 8.85 0 15.95 4.73 18.44 10.59V48.34a8.28 8.28 0 0 1 8.23-8.1 8.47 8.47 0 0 1 8.35 8.1v73.51a8.38 8.38 0 0 1-8.35 8.15Zm-23.68-14c7 0 16.2-5.11 16.2-19.19s-9.22-19.19-16.2-19.19c-8.22 0-16.82 6.48-16.82 19.19s8.6 19.19 16.82 19.19Zm108.65-21.81c0 6.48-3.61 8.72-10.22 8.72l-37-.25c1.49 9.1 8.72 14 17.82 14 4.48 0 6.6-1 10.34-2.62 2.24-1 4-2 6.1-2a5.36 5.36 0 0 1 5.61 5.61c0 2-.87 4.23-4 6.85-4.61 3.24-10.84 5.36-18.69 5.36-16.57 0-34.14-10.22-34.14-32.9 0-22.42 18.57-33.26 32.77-33.26s31.41 11.18 31.41 30.49ZM474 91.45c-1.25-9.59-8.23-13.58-15.33-13.58s-14.7 4-15.82 13.58Zm43.59-19.19v6.36c.5-4.49 8.48-14.83 19.07-14.83 5.6 0 8.35 3.49 8.35 7.35 0 4.49-3.49 7.85-10.22 7.85-10 0-17.2 7.23-17.2 17.32v25.42a8.16 8.16 0 0 1-16.32 0V72.26a8.16 8.16 0 1 1 16.32 0Zm46.85 57.57a8.19 8.19 0 0 1-8.22-8.1V48.34a8.16 8.16 0 0 1 16.32 0v30.15c.5-4.48 7.85-14.7 21.31-14.7 12.58 0 23.67 8.22 23.67 29.78v28.16a8.16 8.16 0 0 1-16.32 0V93.57c0-11.22-5.86-15.83-13.21-15.83-11.21 0-15 10.47-15.45 14v30a8.17 8.17 0 0 1-8.1 8.09Zm129.71-35.64c0 6.48-3.62 8.72-10.22 8.72l-37-.25c1.5 9.1 8.72 14 17.82 14 4.49 0 6.6-1 10.34-2.62 2.25-1 4-2 6.11-2a5.36 5.36 0 0 1 5.61 5.61c0 2-.88 4.23-4 6.85-4.61 3.24-10.84 5.36-18.69 5.36-16.57 0-34.14-10.22-34.14-32.9 0-22.42 18.56-33.26 32.77-33.26s31.4 11.18 31.4 30.49Zm-16.08-2.74c-1.24-9.59-8.22-13.58-15.32-13.58s-14.71 4-15.83 13.58Zm36.76 38.38a8.2 8.2 0 0 1-8.23-8.1V48.34a8.16 8.16 0 0 1 16.32 0v73.39a8.16 8.16 0 0 1-8.09 8.1Zm31.27 23.92a8.19 8.19 0 0 1-8.23-8.1V72.14a8.47 8.47 0 0 1 8.35-8.1 8.25 8.25 0 0 1 8.1 8.1v2.12c2.49-5.86 9.72-10.59 18.44-10.59 13.71 0 30.28 11 30.28 33.14 0 22.68-16.45 33.27-30.28 33.27-11.09 0-17.57-6.86-18.44-10.84v26.41a8.27 8.27 0 0 1-8.22 8.1ZM769.9 116c8.22 0 16.82-6.36 16.82-19.19s-8.6-19.19-16.82-19.19c-7 0-16.2 5.11-16.2 19.19S762.92 116 769.9 116Zm106.03-21.81c0 6.48-3.62 8.72-10.22 8.72l-37-.25c1.5 9.1 8.73 14 17.82 14 4.49 0 6.61-1 10.34-2.62 2.25-1 4-2 6.11-2a5.36 5.36 0 0 1 5.61 5.61c0 2-.88 4.23-4 6.85-4.61 3.24-10.84 5.36-18.69 5.36-16.57 0-34.14-10.22-34.14-32.9 0-22.42 18.56-33.26 32.77-33.26s31.4 11.18 31.4 30.49Zm-16.08-2.74c-1.24-9.59-8.22-13.58-15.32-13.58s-14.7 4-15.83 13.58Zm88.59 2.12v28.16a8.16 8.16 0 0 1-16.32 0V93.57c0-11.22-5.86-15.83-13.21-15.83-11.21 0-14.95 10.47-15.45 14v30a8.16 8.16 0 0 1-16.32 0V72.26a8.16 8.16 0 1 1 16.32 0v6.23c.5-4.48 7.85-14.7 21.31-14.7 12.58 0 23.67 8.21 23.67 29.78ZM3.05 103.19l57.08-57.07a10.4 10.4 0 0 1 14.72 0l57.08 57.07a10.41 10.41 0 0 1 0 14.73l-22.67 22.67c2.26 3.53 6.34 6.77 13.71 6.21a.87.87 0 0 1 .61 1.55c-8.18 6.33-19.36 6.14-27 5L74.85 175a10.42 10.42 0 0 1-14.72 0L3.05 117.92a10.41 10.41 0 0 1 0-14.73Z" fill="#210070"/><rect x="16.72" y="38.25" width="101.55" height="101.55" rx="12" transform="rotate(45 67.494 89.027)" fill="url(#a)"/><path d="M131.93 60.13 74.85 3.05a10.4 10.4 0 0 0-14.72 0L3.05 60.13a10.4 10.4 0 0 0 0 14.72l22.67 22.67c-2.26 3.53-6.34 6.77-13.71 6.22a.87.87 0 0 0-.61 1.55c8.18 6.33 19.36 6.13 27 4.95l21.69 21.69a10.4 10.4 0 0 0 14.72 0l57.08-57.08a10.4 10.4 0 0 0 .04-14.72Z" fill="#00f3ff"/>
</svg>